<?xml version="1.0" standalone="no"?>
<!DOCTYPE svg PUBLIC "-//W3C//DTD SVG 20010904//EN"
 "http://www.w3.org/TR/2001/REC-SVG-20010904/DTD/svg10.dtd">
<svg version="1.0" xmlns="http://www.w3.org/2000/svg"
 width="50.000000pt" height="50.000000pt" viewBox="0 0 50.000000 50.000000"
 preserveAspectRatio="xMidYMid meet">

<g transform="translate(0.000000,50.000000) scale(0.100000,-0.100000)"
fill="#000000" stroke="none">
<path d="M141 268 l-1 -118 44 0 c27 0 51 -6 60 -16 15 -14 16 -14 16 2 0 13
3 15 11 7 13 -13 39 -6 39 9 0 7 -5 6 -13 -1 -10 -8 -21 -3 -46 23 -28 29 -30
34 -15 40 10 4 38 4 63 1 25 -3 40 -2 34 1 -9 4 -13 29 -13 72 l0 67 -84 -3
c-75 -3 -85 -1 -89 15 -3 10 -5 -35 -6 -99z m169 14 l0 -59 -55 5 c-30 2 -55
1 -55 -4 0 -4 12 -21 27 -36 l27 -28 -42 0 -42 0 0 90 0 90 70 0 70 0 0 -58z"/>
<path d="M230 286 c0 -16 5 -26 15 -26 8 0 15 6 15 14 0 7 -7 19 -15 26 -13
11 -15 8 -15 -14z"/>
<path d="M276 293 c-12 -13 -6 -33 12 -32 12 0 13 2 3 6 -10 4 -10 7 -1 13 7
4 8 10 2 13 -5 4 -12 4 -16 0z"/>
<path d="M182 278 c7 -19 38 -22 38 -4 0 10 -9 16 -21 16 -12 0 -19 -5 -17
-12z"/>
<path d="M241 207 c2 -2 26 -18 52 -35 41 -27 48 -29 45 -14 -2 11 4 27 11 38
14 18 14 18 -3 2 -17 -14 -23 -15 -59 -2 -38 14 -55 17 -46 11z"/>
</g>
</svg>
