<?xml version="1.0" standalone="no"?>
<!DOCTYPE svg PUBLIC "-//W3C//DTD SVG 20010904//EN"
 "http://www.w3.org/TR/2001/REC-SVG-20010904/DTD/svg10.dtd">
<svg version="1.0" xmlns="http://www.w3.org/2000/svg"
 width="612.000000pt" height="474.000000pt" viewBox="0 0 612.000000 474.000000"
 preserveAspectRatio="xMidYMid meet">

<g transform="translate(0.000000,474.000000) scale(0.100000,-0.100000)"
fill="#000000" stroke="none">
<path d="M611 4107 c-19 -7 -48 -29 -65 -50 l-31 -39 0 -1451 c0 -1152 3
-1458 13 -1482 7 -16 29 -41 49 -55 l37 -25 1113 -3 1113 -2 0 -175 0 -175
-145 0 c-116 0 -146 -3 -152 -15 -5 -8 -39 -46 -77 -85 -55 -56 -69 -77 -69
-101 0 -17 6 -35 14 -40 17 -10 1279 -12 1295 -1 21 14 24 47 6 73 -9 14 -46
58 -82 97 l-64 72 -143 0 -142 0 -3 47 c-2 27 -2 105 0 176 l3 127 1106 0
c1103 0 1105 0 1143 21 20 11 45 35 56 52 18 31 19 73 19 1487 l0 1455 -22 31
c-12 17 -35 40 -50 50 -27 18 -97 19 -2458 21 -1866 1 -2438 -1 -2464 -10z
m4799 -1522 l0 -1335 -2347 2 -2348 3 -3 1333 -2 1332 2350 0 2350 0 0 -1335z"/>
<path d="M2594 3723 c1036 -2 1433 -6 1443 -14 9 -8 13 -37 13 -95 l0 -84
-1465 0 -1465 0 -1 78 c0 50 -3 70 -8 57 -5 -11 -5 -203 0 -425 5 -223 8 -601
8 -842 l0 -436 -35 -17 c-37 -17 -106 -43 -269 -99 l-90 -31 -3 -278 -2 -277
2337 2 2338 3 3 1104 c2 1048 1 1103 -15 1096 -10 -4 -99 -36 -198 -70 -99
-35 -225 -80 -280 -100 -55 -20 -116 -41 -135 -46 -19 -6 -44 -14 -55 -18 -39
-17 -111 -41 -121 -41 -5 0 -10 16 -10 36 0 28 -7 43 -32 65 -18 16 -40 29
-50 29 -9 0 -100 2 -202 3 l-185 2 -2 145 c-4 182 -10 230 -29 230 -8 0 -12 4
-9 10 3 5 0 7 -8 4 -8 -3 -18 -1 -22 5 -4 8 -432 10 -1443 9 l-1437 -3 1429
-2z m1926 -434 c3 -4 4 -43 2 -88 l-4 -81 -1459 0 -1460 0 3 88 3 87 1432 5
c787 3 1435 8 1439 12 6 7 30 -6 44 -23z m-1740 -329 c6 -10 10 -23 10 -29 0
-18 -35 -12 -53 9 -20 24 -27 25 -53 5 -16 -12 -17 -16 -4 -24 8 -6 32 -13 53
-16 104 -18 71 -136 -34 -122 -46 6 -69 22 -69 48 0 23 35 26 44 3 4 -10 16
-14 38 -12 49 5 42 30 -12 48 -25 8 -51 19 -58 23 -18 12 -15 62 6 80 35 31
112 23 132 -13z m145 30 c19 0 45 -28 45 -50 0 -22 -15 -21 -51 3 -14 10 -34
15 -43 11 -31 -12 -15 -32 42 -50 52 -17 57 -22 60 -51 7 -69 -90 -102 -143
-48 -14 13 -25 29 -25 35 0 16 47 12 54 -6 4 -10 16 -14 38 -12 49 5 42 30
-12 45 -49 14 -80 43 -75 71 2 9 4 21 4 25 1 12 64 37 79 32 8 -3 20 -5 27 -5z
m505 -26 c21 -21 25 -33 24 -81 0 -48 -4 -59 -28 -79 -32 -28 -90 -32 -123 -9
-12 8 -27 31 -33 51 -38 113 77 198 160 118z m-1030 16 c27 -14 35 -65 16 -95
-13 -20 -25 -25 -56 -25 -38 0 -39 -1 -42 -37 -2 -31 -7 -39 -25 -41 -23 -3
-23 -2 -23 102 l0 106 56 0 c30 0 64 -4 74 -10z m178 -87 c18 -54 32 -101 32
-105 0 -20 -41 -6 -50 17 -8 20 -16 25 -44 25 -28 0 -35 -4 -40 -25 -5 -19
-13 -25 -32 -25 -21 0 -25 4 -19 18 3 9 20 56 37 105 28 80 33 87 57 87 24 0
29 -7 59 -97z m473 38 c7 -33 16 -58 20 -56 4 3 10 30 14 60 6 52 8 55 35 55
26 0 28 -3 34 -53 8 -58 26 -100 26 -59 0 13 5 43 11 68 10 37 15 44 35 44 13
0 24 -1 24 -2 -1 -2 -13 -48 -29 -103 -21 -73 -33 -101 -46 -103 -23 -5 -32
11 -40 70 -6 45 -25 78 -25 44 0 -8 -5 -38 -11 -66 -9 -43 -14 -51 -31 -48
-17 2 -26 19 -44 83 -38 132 -38 125 -10 125 23 0 26 -6 37 -59z m577 43 c24
-16 30 -62 11 -81 -8 -8 -8 -17 0 -31 6 -11 11 -35 11 -52 0 -27 -3 -31 -22
-28 -19 2 -24 10 -26 41 -3 35 -5 37 -38 37 -33 0 -34 -1 -34 -40 0 -33 -3
-40 -19 -40 -18 0 -20 9 -23 105 l-3 105 60 0 c39 0 69 -6 83 -16z m203 -3
c21 -16 24 -28 24 -80 0 -81 -21 -103 -105 -109 l-60 -4 0 106 0 106 59 0 c43
0 65 -5 82 -19z m1233 -147 c3 -9 6 -49 6 -90 l0 -74 -260 0 -260 0 0 90 0 90
254 0 c222 0 255 -2 260 -16z m-844 -299 l0 -155 -1160 0 -1160 0 0 155 0 155
1160 0 1160 0 0 -155z"/>
<path d="M1711 3246 c-21 -25 -9 -69 21 -80 50 -17 89 42 52 78 -19 20 -58 21
-73 2z"/>
<path d="M3331 2944 c-15 -11 -21 -26 -21 -50 0 -51 15 -74 50 -74 34 0 50 23
50 73 0 50 -41 77 -79 51z"/>
<path d="M2320 2926 c0 -22 4 -26 31 -26 26 0 30 3 27 23 -2 16 -11 23 -30 25
-24 3 -28 0 -28 -22z"/>
<path d="M2507 2909 c-11 -39 -8 -48 13 -46 15 1 19 6 14 22 -13 42 -21 48
-27 24z"/>
<path d="M3530 2925 c0 -22 4 -25 35 -25 31 0 35 3 35 25 0 22 -4 25 -35 25
-31 0 -35 -3 -35 -25z"/>
<path d="M3730 2884 l0 -66 32 6 c39 8 48 20 48 67 0 42 -15 59 -52 59 -28 0
-28 0 -28 -66z"/>
<path d="M2010 2561 c-14 -27 -13 -47 6 -65 24 -24 61 -20 80 9 15 23 15 27 0
50 -21 31 -70 35 -86 6z"/>
<path d="M2181 2566 c-17 -20 -10 -67 11 -80 28 -17 72 4 76 37 4 36 -13 57
-48 57 -15 0 -33 -6 -39 -14z"/>
<path d="M2354 2572 c-36 -25 -14 -92 31 -92 44 0 67 40 45 81 -11 19 -54 26
-76 11z"/>
<path d="M2512 2568 c-17 -17 -15 -54 4 -72 18 -19 55 -21 72 -4 7 7 12 24 12
38 0 33 -17 50 -50 50 -14 0 -31 -5 -38 -12z"/>
<path d="M2676 2559 c-28 -40 9 -88 57 -75 31 7 44 44 27 75 -15 28 -64 28
-84 0z"/>
<path d="M2840 2561 c-15 -28 -12 -46 8 -64 26 -24 59 -21 77 7 16 23 11 54
-9 68 -22 15 -65 8 -76 -11z"/>
<path d="M3012 2568 c-7 -7 -12 -24 -12 -38 0 -33 17 -50 50 -50 33 0 50 17
50 50 0 33 -17 50 -50 50 -14 0 -31 -5 -38 -12z"/>
<path d="M3184 2572 c-36 -25 -14 -92 31 -92 44 0 67 40 45 81 -11 19 -54 26
-76 11z"/>
<path d="M1236 3654 c-31 -30 -9 -84 34 -84 40 0 66 60 38 88 -17 17 -54 15
-72 -4z"/>
<path d="M2280 3635 c-10 -12 -10 -18 0 -30 11 -13 60 -15 330 -15 270 0 319
2 330 15 10 12 10 18 0 30 -19 22 -641 22 -660 0z m33 -15 c3 -11 1 -20 -4
-20 -5 0 -9 9 -9 20 0 11 2 20 4 20 2 0 6 -9 9 -20z m584 -12 c-3 -7 -5 -2 -5
12 0 14 2 19 5 13 2 -7 2 -19 0 -25z"/>
<path d="M1424 3578 c9 -5 23 -5 32 0 12 6 7 9 -16 9 -23 0 -28 -3 -16 -9z"/>
<path d="M1597 3579 c7 -7 15 -10 18 -7 3 3 -2 9 -12 12 -14 6 -15 5 -6 -5z"/>
</g>
</svg>
